<svg xmlns="http://www.w3.org/2000/svg" xmlns:xlink="http://www.w3.org/1999/xlink" width="377" zoomAndPan="magnify" viewBox="0 0 282.75 60" height="80" preserveAspectRatio="xMidYMid meet" version="1.0"><defs><g/><clipPath id="622f45487f"><path d="M 7.039062 7.039062 L 150 7.039062 L 150 52.875 L 7.039062 52.875 Z M 7.039062 7.039062 " clip-rule="nonzero"/></clipPath><clipPath id="40a55226d3"><path d="M 0.00390625 0.0273438 L 280.496094 0.0273438 L 280.496094 59.972656 L 0.00390625 59.972656 Z M 0.00390625 0.0273438 " clip-rule="nonzero"/></clipPath></defs><g clip-path="url(#622f45487f)"><path fill="#000000" d="M 7.039062 7.039062 L 150.1875 7.039062 L 150.1875 52.164062 L 7.039062 52.164062 Z M 7.039062 7.039062 " fill-opacity="1" fill-rule="nonzero"/></g><g fill="#ffffff" fill-opacity="1"><g transform="translate(14.790316, 37.832223)"><g><path d="M 8.785156 0 C 9.703125 0 10.601562 -0.160156 11.429688 -0.46875 C 13.066406 -0.953125 13.859375 -0.882812 13.933594 -0.160156 L 14.09375 -0.160156 L 14.09375 -5.488281 L 13.933594 -5.488281 L 13.933594 -5.238281 C 13.878906 -2.140625 11.808594 -0.160156 8.785156 -0.160156 C 7.667969 -0.160156 4.589844 -0.953125 4.570312 -7.882812 C 4.589844 -14.8125 7.667969 -15.605469 8.785156 -15.605469 C 11.359375 -15.605469 13.824219 -14.003906 13.933594 -11.359375 L 14.09375 -11.359375 L 14.09375 -15.605469 L 13.933594 -15.605469 C 13.859375 -14.921875 13.140625 -14.796875 11.429688 -15.300781 C 10.601562 -15.605469 9.703125 -15.769531 8.785156 -15.769531 C 6.679688 -15.769531 4.699219 -14.941406 3.222656 -13.464844 L 3.167969 -13.410156 C 1.871094 -12.097656 1.027344 -10.3125 0.898438 -8.351562 L 0.898438 -7.453125 C 1.132812 -3.277344 4.609375 0 8.785156 0 Z M 8.785156 0 "/></g></g></g><g fill="#ffffff" fill-opacity="1"><g transform="translate(31.152271, 37.832223)"><g><path d="M 8.785156 0.179688 C 13.140625 0.179688 16.667969 -3.4375 16.667969 -7.792969 C 16.667969 -12.222656 13.121094 -15.769531 8.785156 -15.769531 C 4.445312 -15.769531 0.898438 -12.222656 0.898438 -7.792969 C 0.898438 -3.511719 4.390625 0.179688 8.785156 0.179688 Z M 8.785156 -0.0351562 C 7.667969 -0.0351562 4.570312 -0.703125 4.570312 -7.792969 C 4.570312 -14.8125 7.667969 -15.550781 8.785156 -15.550781 C 9.917969 -15.550781 12.996094 -14.8125 12.996094 -7.792969 C 12.996094 -0.703125 9.917969 -0.0351562 8.785156 -0.0351562 Z M 8.785156 -0.0351562 "/></g></g></g><g fill="#ffffff" fill-opacity="1"><g transform="translate(50.08822, 37.832223)"><g><path d="M 3.382812 -12.90625 L 14.742188 0 L 14.921875 0 L 14.921875 -13.519531 C 14.976562 -15.445312 16.972656 -15.335938 16.972656 -15.335938 L 16.972656 -15.515625 L 12.707031 -15.515625 L 12.707031 -15.355469 C 12.707031 -15.335938 14.707031 -15.445312 14.761719 -13.519531 L 14.761719 -5.542969 L 5.957031 -15.515625 L 0.898438 -15.515625 L 0.898438 -15.335938 C 2.179688 -15.335938 2.898438 -14.6875 2.933594 -13.15625 L 2.933594 -1.980469 C 2.898438 -0.324219 1.386719 -0.179688 0.988281 -0.160156 L 0.898438 -0.160156 L 0.898438 0 L 5.148438 0 L 5.148438 -0.160156 L 5.058594 -0.160156 C 4.644531 -0.179688 3.148438 -0.324219 3.097656 -1.980469 L 3.097656 -13.210938 Z M 3.382812 -12.90625 "/></g></g></g><g fill="#ffffff" fill-opacity="1"><g transform="translate(69.330162, 37.832223)"><g><path d="M 4.625 -0.160156 L 4.625 0 L 12.601562 0 L 12.601562 -0.160156 C 11.285156 -0.160156 10.476562 -0.882812 10.476562 -2.070312 L 10.476562 -15.355469 L 10.636719 -15.355469 C 14.992188 -15.355469 15.929688 -12.691406 16.109375 -11.773438 L 16.164062 -11.449219 L 16.308594 -11.519531 L 15.695312 -15.515625 L 1.511719 -15.515625 L 0.898438 -11.519531 L 1.042969 -11.449219 L 1.097656 -11.773438 C 1.296875 -12.691406 2.214844 -15.355469 6.570312 -15.355469 L 6.75 -15.355469 L 6.75 -2.070312 C 6.75 -0.882812 5.941406 -0.160156 4.625 -0.160156 Z M 4.625 -0.160156 "/></g></g></g><g fill="#ffffff" fill-opacity="1"><g transform="translate(87.906112, 37.832223)"><g><path d="M 0.898438 -0.160156 L 0.898438 0 L 13.933594 0 L 15.121094 -4.066406 L 14.957031 -4.066406 C 14.09375 -1.457031 11.96875 -0.160156 8.875 -0.160156 C 7.558594 -0.160156 6.75 -0.882812 6.75 -2.070312 L 6.75 -8.0625 L 9.449219 -8.0625 C 11.105469 -8.011719 11.269531 -6.515625 11.269531 -6.101562 L 11.269531 -6.011719 L 11.429688 -6.011719 L 11.429688 -10.261719 L 11.269531 -10.261719 L 11.269531 -10.171875 C 11.269531 -9.757812 11.105469 -8.261719 9.449219 -8.226562 L 6.75 -8.226562 L 6.769531 -15.355469 L 8.0625 -15.355469 C 12.421875 -15.355469 13.355469 -12.691406 13.535156 -11.773438 L 13.589844 -11.449219 L 13.734375 -11.519531 L 13.121094 -15.515625 L 0.898438 -15.515625 L 0.898438 -15.355469 C 2.214844 -15.355469 3.023438 -14.632812 3.023438 -13.445312 L 3.023438 -2.070312 C 3.023438 -0.882812 2.214844 -0.160156 0.898438 -0.160156 Z M 0.898438 -0.160156 "/></g></g></g><g fill="#ffffff" fill-opacity="1"><g transform="translate(105.294063, 37.832223)"><g><path d="M 3.382812 -12.90625 L 14.742188 0 L 14.921875 0 L 14.921875 -13.519531 C 14.976562 -15.445312 16.972656 -15.335938 16.972656 -15.335938 L 16.972656 -15.515625 L 12.707031 -15.515625 L 12.707031 -15.355469 C 12.707031 -15.335938 14.707031 -15.445312 14.761719 -13.519531 L 14.761719 -5.542969 L 5.957031 -15.515625 L 0.898438 -15.515625 L 0.898438 -15.335938 C 2.179688 -15.335938 2.898438 -14.6875 2.933594 -13.15625 L 2.933594 -1.980469 C 2.898438 -0.324219 1.386719 -0.179688 0.988281 -0.160156 L 0.898438 -0.160156 L 0.898438 0 L 5.148438 0 L 5.148438 -0.160156 L 5.058594 -0.160156 C 4.644531 -0.179688 3.148438 -0.324219 3.097656 -1.980469 L 3.097656 -13.210938 Z M 3.382812 -12.90625 "/></g></g></g><g fill="#ffffff" fill-opacity="1"><g transform="translate(124.536008, 37.832223)"><g><path d="M 4.625 -0.160156 L 4.625 0 L 12.601562 0 L 12.601562 -0.160156 C 11.285156 -0.160156 10.476562 -0.882812 10.476562 -2.070312 L 10.476562 -15.355469 L 10.636719 -15.355469 C 14.992188 -15.355469 15.929688 -12.691406 16.109375 -11.773438 L 16.164062 -11.449219 L 16.308594 -11.519531 L 15.695312 -15.515625 L 1.511719 -15.515625 L 0.898438 -11.519531 L 1.042969 -11.449219 L 1.097656 -11.773438 C 1.296875 -12.691406 2.214844 -15.355469 6.570312 -15.355469 L 6.75 -15.355469 L 6.75 -2.070312 C 6.75 -0.882812 5.941406 -0.160156 4.625 -0.160156 Z M 4.625 -0.160156 "/></g></g></g><g fill="#000000" fill-opacity="1"><g transform="translate(154.819084, 38.207224)"><g><path d="M 8.125 0.375 C 12.472656 0.375 15.046875 -1.675781 15.046875 -5.125 C 15.046875 -8.023438 13.171875 -9.722656 8.925781 -10.675781 C 6.675781 -11.175781 5.847656 -11.722656 5.847656 -12.625 C 5.847656 -13.472656 6.597656 -14 7.773438 -14 C 9.175781 -14 9.972656 -13.273438 9.972656 -11.949219 L 14.722656 -11.949219 C 14.722656 -15.546875 11.972656 -17.875 7.675781 -17.875 C 3.550781 -17.875 1 -15.824219 1 -12.523438 C 1 -9.574219 2.925781 -7.75 6.875 -7 C 9 -6.574219 10.023438 -5.925781 10.023438 -4.925781 C 10.023438 -4.050781 9.273438 -3.550781 8.050781 -3.550781 C 6.597656 -3.550781 5.75 -4.324219 5.75 -5.675781 L 0.875 -5.675781 C 0.875 -1.898438 3.574219 0.375 8.125 0.375 Z M 8.125 0.375 "/></g></g></g><g fill="#000000" fill-opacity="1"><g transform="translate(170.791556, 38.207224)"><g><path d="M 12.296875 0 L 17.347656 0 L 17.347656 -17.5 L 12.296875 -17.5 L 12.296875 -11.222656 L 6.898438 -11.222656 L 6.898438 -17.5 L 1.851562 -17.5 L 1.851562 0 L 6.898438 0 L 6.898438 -6.574219 L 12.296875 -6.574219 Z M 12.296875 0 "/></g></g></g><g fill="#000000" fill-opacity="1"><g transform="translate(189.988514, 38.207224)"><g><path d="M 0.125 0 L 5.472656 0 L 6.425781 -2.476562 L 12.398438 -2.476562 L 13.347656 0 L 18.722656 0 L 11.921875 -17.5 L 6.925781 -17.5 Z M 7.472656 -6.175781 L 9.425781 -11.597656 L 11.375 -6.175781 Z M 7.472656 -6.175781 "/></g></g></g><g fill="#000000" fill-opacity="1"><g transform="translate(208.835523, 38.207224)"><g><path d="M 1.851562 0 L 6.898438 0 L 6.898438 -4.972656 L 8.800781 -4.972656 L 11.300781 0 L 17.023438 0 L 13.796875 -5.898438 C 15.648438 -6.925781 16.699219 -8.773438 16.699219 -11.222656 C 16.699219 -15.097656 14.074219 -17.5 9.824219 -17.5 L 1.851562 -17.5 Z M 6.800781 -9 L 6.800781 -13.375 L 9.148438 -13.375 C 10.75 -13.375 11.625 -12.597656 11.625 -11.199219 C 11.625 -9.800781 10.75 -9 9.148438 -9 Z M 6.800781 -9 "/></g></g></g><g fill="#000000" fill-opacity="1"><g transform="translate(226.832672, 38.207224)"><g><path d="M 1.851562 0 L 6.898438 0 L 6.898438 -17.5 L 1.851562 -17.5 Z M 1.851562 0 "/></g></g></g><g fill="#000000" fill-opacity="1"><g transform="translate(235.58129, 38.207224)"><g><path d="M 1.851562 0 L 6.847656 0 L 6.847656 -8.925781 L 13.5 0 L 17.597656 0 L 17.597656 -17.5 L 12.625 -17.5 L 12.625 -8.625 L 5.972656 -17.5 L 1.851562 -17.5 Z M 1.851562 0 "/></g></g></g><g fill="#000000" fill-opacity="1"><g transform="translate(255.053204, 38.207224)"><g><path d="M 10.199219 0.375 C 16.222656 0.375 19.996094 -4 19.449219 -10.148438 L 9.324219 -10.148438 L 9.324219 -6.597656 L 14.148438 -6.597656 C 13.648438 -5.125 12.25 -4.125 10.25 -4.125 C 7.449219 -4.125 5.824219 -6.097656 5.824219 -8.75 C 5.824219 -11.5 7.597656 -13.375 10.199219 -13.375 C 11.75 -13.375 13.074219 -12.699219 13.75 -11.597656 L 19.125 -11.597656 C 18.097656 -15.421875 14.546875 -17.875 10.125 -17.875 C 4.625 -17.875 0.851562 -14.125 0.851562 -8.75 C 0.851562 -3.351562 4.648438 0.375 10.199219 0.375 Z M 10.199219 0.375 "/></g></g></g><g clip-path="url(#40a55226d3)"><path stroke-linecap="butt" transform="matrix(0.74953, 0, 0, 0.751762, 0.00445551, 0.0265038)" fill="none" stroke-linejoin="miter" d="M -0.000732805 0.00111736 L 374.223269 0.00111736 L 374.223269 79.81363 L -0.000732805 79.81363 L -0.000732805 0.00111736 " stroke="#000000" stroke-width="6" stroke-opacity="1" stroke-miterlimit="4"/></g></svg>