<svg xmlns="http://www.w3.org/2000/svg" xmlns:xlink="http://www.w3.org/1999/xlink" width="377" zoomAndPan="magnify" viewBox="0 0 282.75 60" height="80" preserveAspectRatio="xMidYMid meet" version="1.0"><defs><g/><clipPath id="23c6b1e7f1"><path d="M 0 0.0273438 L 282.5 0.0273438 L 282.5 59.972656 L 0 59.972656 Z M 0 0.0273438 " clip-rule="nonzero"/></clipPath></defs><g clip-path="url(#23c6b1e7f1)"><path fill="#ffffff" d="M 0 0.0273438 L 282.75 0.0273438 L 282.75 67.527344 L 0 67.527344 Z M 0 0.0273438 " fill-opacity="1" fill-rule="nonzero"/><path fill="#ffffff" d="M 0 0.0273438 L 282.75 0.0273438 L 282.75 60.027344 L 0 60.027344 Z M 0 0.0273438 " fill-opacity="1" fill-rule="nonzero"/><path fill="#ffffff" d="M 0 0.0273438 L 282.75 0.0273438 L 282.75 60.027344 L 0 60.027344 Z M 0 0.0273438 " fill-opacity="1" fill-rule="nonzero"/><path fill="#ffffff" d="M 0 0.0273438 L 282.65625 0.0273438 L 282.65625 59.933594 L 0 59.933594 Z M 0 0.0273438 " fill-opacity="1" fill-rule="nonzero"/></g><g fill="#000000" fill-opacity="1"><g transform="translate(7.148437, 38.276499)"><g><path d="M 10.4375 0.1875 C 8.757812 0.1875 7.25 -0.125 5.90625 -0.75 C 4.570312 -1.375 3.507812 -2.289062 2.71875 -3.5 C 1.925781 -4.707031 1.53125 -6.171875 1.53125 -7.890625 C 1.53125 -9.085938 1.738281 -10.390625 2.15625 -11.796875 C 3.082031 -14.796875 4.472656 -16.957031 6.328125 -18.28125 C 8.191406 -19.613281 10.179688 -20.28125 12.296875 -20.28125 C 13.441406 -20.28125 14.453125 -20.109375 15.328125 -19.765625 C 16.210938 -19.429688 17.023438 -18.941406 17.765625 -18.296875 L 18.5625 -18.9375 C 19.101562 -19.351562 19.554688 -19.640625 19.921875 -19.796875 C 20.296875 -19.960938 20.71875 -20.046875 21.1875 -20.046875 C 21.6875 -20.046875 22.082031 -19.929688 22.375 -19.703125 C 22.675781 -19.484375 22.828125 -19.164062 22.828125 -18.75 C 22.828125 -18.53125 22.785156 -18.3125 22.703125 -18.09375 L 21.03125 -13.40625 C 20.851562 -12.863281 20.640625 -12.484375 20.390625 -12.265625 C 20.140625 -12.046875 19.765625 -11.9375 19.265625 -11.9375 C 18.742188 -11.9375 18.316406 -12.117188 17.984375 -12.484375 C 17.648438 -12.859375 17.273438 -13.5 16.859375 -14.40625 C 16.378906 -15.34375 15.988281 -15.957031 15.6875 -16.25 C 15.382812 -16.550781 14.945312 -16.703125 14.375 -16.703125 C 13.550781 -16.703125 12.757812 -16.195312 12 -15.1875 C 11.238281 -14.1875 10.550781 -12.675781 9.9375 -10.65625 C 9.414062 -8.945312 9.15625 -7.523438 9.15625 -6.390625 C 9.15625 -5.390625 9.34375 -4.644531 9.71875 -4.15625 C 10.101562 -3.664062 10.613281 -3.421875 11.25 -3.421875 C 12.1875 -3.421875 12.957031 -3.628906 13.5625 -4.046875 C 14.175781 -4.472656 14.804688 -5.046875 15.453125 -5.765625 C 15.847656 -6.203125 16.171875 -6.523438 16.421875 -6.734375 C 16.671875 -6.941406 16.9375 -7.046875 17.21875 -7.046875 C 17.582031 -7.046875 17.960938 -6.863281 18.359375 -6.5 C 18.753906 -6.144531 18.945312 -5.789062 18.9375 -5.4375 C 18.945312 -4.988281 18.585938 -4.304688 17.859375 -3.390625 C 17.128906 -2.472656 16.117188 -1.644531 14.828125 -0.90625 C 13.546875 -0.175781 12.082031 0.1875 10.4375 0.1875 Z M 10.4375 0.1875 "/></g></g></g><g fill="#000000" fill-opacity="1"><g transform="translate(27.908417, 38.276499)"><g><path d="M 11.609375 -15.875 C 14.328125 -15.875 16.332031 -15.320312 17.625 -14.21875 C 18.914062 -13.113281 19.5625 -11.675781 19.5625 -9.90625 C 19.5625 -9.300781 19.476562 -8.628906 19.3125 -7.890625 C 18.9375 -6.253906 18.226562 -4.816406 17.1875 -3.578125 C 16.144531 -2.347656 14.867188 -1.398438 13.359375 -0.734375 C 11.847656 -0.0664062 10.210938 0.265625 8.453125 0.265625 C 5.679688 0.265625 3.628906 -0.285156 2.296875 -1.390625 C 0.960938 -2.503906 0.296875 -3.976562 0.296875 -5.8125 C 0.296875 -6.4375 0.378906 -7.128906 0.546875 -7.890625 C 0.921875 -9.453125 1.640625 -10.835938 2.703125 -12.046875 C 3.773438 -13.253906 5.085938 -14.191406 6.640625 -14.859375 C 8.191406 -15.535156 9.847656 -15.875 11.609375 -15.875 Z M 11.515625 -13.203125 C 11.097656 -13.203125 10.65625 -12.828125 10.1875 -12.078125 C 9.71875 -11.328125 9.160156 -9.910156 8.515625 -7.828125 C 7.878906 -5.742188 7.5625 -4.285156 7.5625 -3.453125 C 7.5625 -3.015625 7.628906 -2.71875 7.765625 -2.5625 C 7.910156 -2.414062 8.101562 -2.34375 8.34375 -2.34375 C 8.757812 -2.300781 9.191406 -2.660156 9.640625 -3.421875 C 10.085938 -4.179688 10.65625 -5.660156 11.34375 -7.859375 C 11.957031 -9.796875 12.265625 -11.207031 12.265625 -12.09375 C 12.265625 -12.507812 12.195312 -12.796875 12.0625 -12.953125 C 11.9375 -13.117188 11.753906 -13.203125 11.515625 -13.203125 Z M 11.515625 -13.203125 "/></g></g></g><g fill="#000000" fill-opacity="1"><g transform="translate(47.588396, 38.276499)"><g><path d="M 18.5625 -4.140625 C 18.53125 -4.054688 18.515625 -3.9375 18.515625 -3.78125 C 18.515625 -3.632812 18.546875 -3.519531 18.609375 -3.4375 C 18.679688 -3.363281 18.78125 -3.328125 18.90625 -3.328125 C 19.144531 -3.328125 19.347656 -3.429688 19.515625 -3.640625 C 19.679688 -3.847656 19.796875 -3.953125 19.859375 -3.953125 C 19.960938 -3.953125 20.039062 -3.882812 20.09375 -3.75 C 20.15625 -3.625 20.1875 -3.472656 20.1875 -3.296875 C 20.207031 -2.722656 20.015625 -2.160156 19.609375 -1.609375 C 19.210938 -1.054688 18.628906 -0.601562 17.859375 -0.25 C 17.085938 0.09375 16.164062 0.265625 15.09375 0.265625 C 13.769531 0.265625 12.71875 -0.0351562 11.9375 -0.640625 C 11.15625 -1.253906 10.753906 -2.070312 10.734375 -3.09375 C 10.734375 -3.832031 10.914062 -4.660156 11.28125 -5.578125 L 12.9375 -9.90625 C 13.03125 -10.164062 13.078125 -10.375 13.078125 -10.53125 C 13.078125 -10.789062 12.988281 -10.992188 12.8125 -11.140625 C 12.644531 -11.296875 12.441406 -11.375 12.203125 -11.375 C 11.765625 -11.375 11.34375 -11.164062 10.9375 -10.75 C 10.539062 -10.34375 10.253906 -9.835938 10.078125 -9.234375 L 8.21875 -3.125 C 8.132812 -2.90625 8.09375 -2.691406 8.09375 -2.484375 C 8.09375 -2.242188 8.144531 -2.050781 8.25 -1.90625 C 8.351562 -1.757812 8.492188 -1.601562 8.671875 -1.4375 C 8.804688 -1.320312 8.90625 -1.210938 8.96875 -1.109375 C 9.03125 -1.003906 9.039062 -0.882812 9 -0.75 C 8.914062 -0.488281 8.722656 -0.296875 8.421875 -0.171875 C 8.128906 -0.0546875 7.660156 0 7.015625 0 L 0.1875 0 C -0.332031 0 -0.707031 -0.0820312 -0.9375 -0.25 C -1.175781 -0.425781 -1.265625 -0.65625 -1.203125 -0.9375 C -1.117188 -1.175781 -0.90625 -1.382812 -0.5625 -1.5625 C -0.269531 -1.71875 -0.0234375 -1.90625 0.171875 -2.125 C 0.378906 -2.34375 0.550781 -2.695312 0.6875 -3.1875 L 3.359375 -11.84375 C 3.398438 -11.945312 3.421875 -12.085938 3.421875 -12.265625 C 3.421875 -12.484375 3.375 -12.648438 3.28125 -12.765625 C 3.195312 -12.890625 3.050781 -13.046875 2.84375 -13.234375 C 2.644531 -13.390625 2.503906 -13.523438 2.421875 -13.640625 C 2.347656 -13.765625 2.34375 -13.925781 2.40625 -14.125 C 2.519531 -14.582031 3.144531 -14.988281 4.28125 -15.34375 C 5.425781 -15.695312 6.617188 -15.875 7.859375 -15.875 C 8.859375 -15.875 9.644531 -15.597656 10.21875 -15.046875 C 10.800781 -14.492188 11.066406 -13.726562 11.015625 -12.75 C 11.828125 -13.925781 12.691406 -14.738281 13.609375 -15.1875 C 14.535156 -15.644531 15.539062 -15.875 16.625 -15.875 C 17.84375 -15.875 18.828125 -15.503906 19.578125 -14.765625 C 20.328125 -14.023438 20.703125 -13.0625 20.703125 -11.875 C 20.703125 -11.257812 20.601562 -10.648438 20.40625 -10.046875 Z M 18.5625 -4.140625 "/></g></g></g><g fill="#000000" fill-opacity="1"><g transform="translate(69.06837, 38.276499)"><g><path d="M 13.40625 -15.484375 C 13.789062 -15.484375 14.085938 -15.398438 14.296875 -15.234375 C 14.503906 -15.078125 14.609375 -14.859375 14.609375 -14.578125 C 14.609375 -14.492188 14.585938 -14.351562 14.546875 -14.15625 C 14.285156 -13.28125 13.6875 -12.84375 12.75 -12.84375 L 11.015625 -12.84375 L 8.765625 -5.4375 C 8.660156 -5.132812 8.609375 -4.820312 8.609375 -4.5 C 8.609375 -4.132812 8.707031 -3.882812 8.90625 -3.75 C 9.101562 -3.613281 9.382812 -3.546875 9.75 -3.546875 C 10.070312 -3.546875 10.472656 -3.582031 10.953125 -3.65625 C 11.191406 -3.71875 11.398438 -3.75 11.578125 -3.75 C 11.722656 -3.75 11.828125 -3.703125 11.890625 -3.609375 C 11.960938 -3.523438 12 -3.410156 12 -3.265625 C 12.019531 -2.867188 11.722656 -2.382812 11.109375 -1.8125 C 10.503906 -1.238281 9.679688 -0.75 8.640625 -0.34375 C 7.597656 0.0625 6.445312 0.265625 5.1875 0.265625 C 3.832031 0.265625 2.742188 -0.0390625 1.921875 -0.65625 C 1.097656 -1.28125 0.6875 -2.128906 0.6875 -3.203125 C 0.6875 -3.703125 0.769531 -4.1875 0.9375 -4.65625 L 2.84375 -10.59375 C 2.945312 -10.925781 3 -11.195312 3 -11.40625 C 3 -11.800781 2.90625 -12.140625 2.71875 -12.421875 C 2.53125 -12.703125 2.265625 -12.992188 1.921875 -13.296875 C 1.617188 -13.566406 1.40625 -13.796875 1.28125 -13.984375 C 1.164062 -14.179688 1.140625 -14.410156 1.203125 -14.671875 C 1.273438 -14.929688 1.441406 -15.128906 1.703125 -15.265625 C 1.960938 -15.410156 2.375 -15.484375 2.9375 -15.484375 L 4.625 -15.484375 L 6.515625 -17.375 C 7.171875 -18.03125 7.773438 -18.488281 8.328125 -18.75 C 8.878906 -19.007812 9.59375 -19.140625 10.46875 -19.140625 C 11.726562 -19.140625 12.359375 -18.660156 12.359375 -17.703125 C 12.359375 -17.398438 12.316406 -17.117188 12.234375 -16.859375 L 11.8125 -15.484375 Z M 13.40625 -15.484375 "/></g></g></g><g fill="#000000" fill-opacity="1"><g transform="translate(81.968355, 38.276499)"><g><path d="M 10.171875 -16.015625 C 12.710938 -16.015625 14.550781 -15.609375 15.6875 -14.796875 C 16.832031 -13.992188 17.40625 -12.960938 17.40625 -11.703125 C 17.40625 -11.316406 17.363281 -10.96875 17.28125 -10.65625 C 16.976562 -9.332031 16.140625 -8.382812 14.765625 -7.8125 C 13.398438 -7.238281 11.789062 -6.953125 9.9375 -6.953125 C 8.988281 -6.953125 8.109375 -7.015625 7.296875 -7.140625 C 7.273438 -6.097656 7.550781 -5.363281 8.125 -4.9375 C 8.707031 -4.519531 9.519531 -4.3125 10.5625 -4.3125 C 11.039062 -4.3125 11.5 -4.367188 11.9375 -4.484375 C 12.375 -4.597656 12.9375 -4.765625 13.625 -4.984375 C 14.175781 -5.179688 14.554688 -5.28125 14.765625 -5.28125 C 14.984375 -5.28125 15.09375 -5.148438 15.09375 -4.890625 C 15.113281 -4.191406 14.851562 -3.457031 14.3125 -2.6875 C 13.769531 -1.914062 12.96875 -1.257812 11.90625 -0.71875 C 10.84375 -0.175781 9.5625 0.09375 8.0625 0.09375 C 5.84375 0.09375 4.023438 -0.460938 2.609375 -1.578125 C 1.191406 -2.703125 0.484375 -4.335938 0.484375 -6.484375 C 0.484375 -7.078125 0.5625 -7.773438 0.71875 -8.578125 C 1.21875 -11.035156 2.3125 -12.890625 4 -14.140625 C 5.695312 -15.390625 7.753906 -16.015625 10.171875 -16.015625 Z M 7.5 -8.9375 C 7.582031 -8.914062 7.691406 -8.90625 7.828125 -8.90625 C 8.671875 -8.90625 9.3125 -9.296875 9.75 -10.078125 C 10.1875 -10.859375 10.394531 -11.726562 10.375 -12.6875 C 10.351562 -13.25 10.195312 -13.53125 9.90625 -13.53125 C 9.675781 -13.53125 9.410156 -13.351562 9.109375 -13 C 8.816406 -12.65625 8.523438 -12.128906 8.234375 -11.421875 C 7.941406 -10.722656 7.695312 -9.894531 7.5 -8.9375 Z M 7.5 -8.9375 "/></g></g></g><g fill="#000000" fill-opacity="1"><g transform="translate(98.768337, 38.276499)"><g><path d="M 18.5625 -4.140625 C 18.53125 -4.054688 18.515625 -3.9375 18.515625 -3.78125 C 18.515625 -3.632812 18.546875 -3.519531 18.609375 -3.4375 C 18.679688 -3.363281 18.78125 -3.328125 18.90625 -3.328125 C 19.144531 -3.328125 19.347656 -3.429688 19.515625 -3.640625 C 19.679688 -3.847656 19.796875 -3.953125 19.859375 -3.953125 C 19.960938 -3.953125 20.039062 -3.882812 20.09375 -3.75 C 20.15625 -3.625 20.1875 -3.472656 20.1875 -3.296875 C 20.207031 -2.722656 20.015625 -2.160156 19.609375 -1.609375 C 19.210938 -1.054688 18.628906 -0.601562 17.859375 -0.25 C 17.085938 0.09375 16.164062 0.265625 15.09375 0.265625 C 13.769531 0.265625 12.71875 -0.0351562 11.9375 -0.640625 C 11.15625 -1.253906 10.753906 -2.070312 10.734375 -3.09375 C 10.734375 -3.832031 10.914062 -4.660156 11.28125 -5.578125 L 12.9375 -9.90625 C 13.03125 -10.164062 13.078125 -10.375 13.078125 -10.53125 C 13.078125 -10.789062 12.988281 -10.992188 12.8125 -11.140625 C 12.644531 -11.296875 12.441406 -11.375 12.203125 -11.375 C 11.765625 -11.375 11.34375 -11.164062 10.9375 -10.75 C 10.539062 -10.34375 10.253906 -9.835938 10.078125 -9.234375 L 8.21875 -3.125 C 8.132812 -2.90625 8.09375 -2.691406 8.09375 -2.484375 C 8.09375 -2.242188 8.144531 -2.050781 8.25 -1.90625 C 8.351562 -1.757812 8.492188 -1.601562 8.671875 -1.4375 C 8.804688 -1.320312 8.90625 -1.210938 8.96875 -1.109375 C 9.03125 -1.003906 9.039062 -0.882812 9 -0.75 C 8.914062 -0.488281 8.722656 -0.296875 8.421875 -0.171875 C 8.128906 -0.0546875 7.660156 0 7.015625 0 L 0.1875 0 C -0.332031 0 -0.707031 -0.0820312 -0.9375 -0.25 C -1.175781 -0.425781 -1.265625 -0.65625 -1.203125 -0.9375 C -1.117188 -1.175781 -0.90625 -1.382812 -0.5625 -1.5625 C -0.269531 -1.71875 -0.0234375 -1.90625 0.171875 -2.125 C 0.378906 -2.34375 0.550781 -2.695312 0.6875 -3.1875 L 3.359375 -11.84375 C 3.398438 -11.945312 3.421875 -12.085938 3.421875 -12.265625 C 3.421875 -12.484375 3.375 -12.648438 3.28125 -12.765625 C 3.195312 -12.890625 3.050781 -13.046875 2.84375 -13.234375 C 2.644531 -13.390625 2.503906 -13.523438 2.421875 -13.640625 C 2.347656 -13.765625 2.34375 -13.925781 2.40625 -14.125 C 2.519531 -14.582031 3.144531 -14.988281 4.28125 -15.34375 C 5.425781 -15.695312 6.617188 -15.875 7.859375 -15.875 C 8.859375 -15.875 9.644531 -15.597656 10.21875 -15.046875 C 10.800781 -14.492188 11.066406 -13.726562 11.015625 -12.75 C 11.828125 -13.925781 12.691406 -14.738281 13.609375 -15.1875 C 14.535156 -15.644531 15.539062 -15.875 16.625 -15.875 C 17.84375 -15.875 18.828125 -15.503906 19.578125 -14.765625 C 20.328125 -14.023438 20.703125 -13.0625 20.703125 -11.875 C 20.703125 -11.257812 20.601562 -10.648438 20.40625 -10.046875 Z M 18.5625 -4.140625 "/></g></g></g><g fill="#000000" fill-opacity="1"><g transform="translate(120.248311, 38.276499)"><g><path d="M 13.40625 -15.484375 C 13.789062 -15.484375 14.085938 -15.398438 14.296875 -15.234375 C 14.503906 -15.078125 14.609375 -14.859375 14.609375 -14.578125 C 14.609375 -14.492188 14.585938 -14.351562 14.546875 -14.15625 C 14.285156 -13.28125 13.6875 -12.84375 12.75 -12.84375 L 11.015625 -12.84375 L 8.765625 -5.4375 C 8.660156 -5.132812 8.609375 -4.820312 8.609375 -4.5 C 8.609375 -4.132812 8.707031 -3.882812 8.90625 -3.75 C 9.101562 -3.613281 9.382812 -3.546875 9.75 -3.546875 C 10.070312 -3.546875 10.472656 -3.582031 10.953125 -3.65625 C 11.191406 -3.71875 11.398438 -3.75 11.578125 -3.75 C 11.722656 -3.75 11.828125 -3.703125 11.890625 -3.609375 C 11.960938 -3.523438 12 -3.410156 12 -3.265625 C 12.019531 -2.867188 11.722656 -2.382812 11.109375 -1.8125 C 10.503906 -1.238281 9.679688 -0.75 8.640625 -0.34375 C 7.597656 0.0625 6.445312 0.265625 5.1875 0.265625 C 3.832031 0.265625 2.742188 -0.0390625 1.921875 -0.65625 C 1.097656 -1.28125 0.6875 -2.128906 0.6875 -3.203125 C 0.6875 -3.703125 0.769531 -4.1875 0.9375 -4.65625 L 2.84375 -10.59375 C 2.945312 -10.925781 3 -11.195312 3 -11.40625 C 3 -11.800781 2.90625 -12.140625 2.71875 -12.421875 C 2.53125 -12.703125 2.265625 -12.992188 1.921875 -13.296875 C 1.617188 -13.566406 1.40625 -13.796875 1.28125 -13.984375 C 1.164062 -14.179688 1.140625 -14.410156 1.203125 -14.671875 C 1.273438 -14.929688 1.441406 -15.128906 1.703125 -15.265625 C 1.960938 -15.410156 2.375 -15.484375 2.9375 -15.484375 L 4.625 -15.484375 L 6.515625 -17.375 C 7.171875 -18.03125 7.773438 -18.488281 8.328125 -18.75 C 8.878906 -19.007812 9.59375 -19.140625 10.46875 -19.140625 C 11.726562 -19.140625 12.359375 -18.660156 12.359375 -17.703125 C 12.359375 -17.398438 12.316406 -17.117188 12.234375 -16.859375 L 11.8125 -15.484375 Z M 13.40625 -15.484375 "/></g></g></g><g fill="#000000" fill-opacity="1"><g transform="translate(133.136707, 38.276499)"><g/></g><g transform="translate(139.136706, 38.276499)"><g/></g></g><g fill="#000000" fill-opacity="1"><g transform="translate(145.136705, 38.276499)"><g><path d="M 11.21875 -20.15625 C 12.34375 -20.15625 13.378906 -20.019531 14.328125 -19.75 C 15.273438 -19.476562 16.238281 -19.054688 17.21875 -18.484375 L 17.90625 -19.046875 C 18.382812 -19.429688 18.78125 -19.691406 19.09375 -19.828125 C 19.40625 -19.972656 19.757812 -20.046875 20.15625 -20.046875 C 20.632812 -20.046875 21.015625 -19.9375 21.296875 -19.71875 C 21.578125 -19.507812 21.71875 -19.207031 21.71875 -18.8125 C 21.71875 -18.644531 21.6875 -18.472656 21.625 -18.296875 L 20.375 -14.15625 C 20.226562 -13.675781 20.050781 -13.335938 19.84375 -13.140625 C 19.632812 -12.941406 19.320312 -12.84375 18.90625 -12.84375 C 18.457031 -12.84375 18.066406 -12.976562 17.734375 -13.25 C 17.410156 -13.519531 16.898438 -14.070312 16.203125 -14.90625 C 15.503906 -15.707031 14.867188 -16.269531 14.296875 -16.59375 C 13.722656 -16.925781 13.140625 -17.09375 12.546875 -17.09375 C 12.097656 -17.09375 11.722656 -16.945312 11.421875 -16.65625 C 11.128906 -16.375 10.984375 -16.019531 10.984375 -15.59375 C 10.984375 -15.113281 11.222656 -14.671875 11.703125 -14.265625 C 12.179688 -13.859375 12.929688 -13.34375 13.953125 -12.71875 C 14.992188 -12.101562 15.851562 -11.546875 16.53125 -11.046875 C 17.207031 -10.546875 17.785156 -9.921875 18.265625 -9.171875 C 18.742188 -8.429688 18.984375 -7.582031 18.984375 -6.625 C 18.984375 -6.007812 18.882812 -5.390625 18.6875 -4.765625 C 18.207031 -3.171875 17.273438 -1.957031 15.890625 -1.125 C 14.515625 -0.289062 12.90625 0.125 11.0625 0.125 C 9.6875 0.125 8.53125 -0.0351562 7.59375 -0.359375 C 6.65625 -0.679688 5.691406 -1.222656 4.703125 -1.984375 L 3.625 -1.078125 C 3.125 -0.660156 2.710938 -0.375 2.390625 -0.21875 C 2.078125 -0.0703125 1.71875 0 1.3125 0 C 0.851562 0 0.488281 -0.109375 0.21875 -0.328125 C -0.0507812 -0.546875 -0.1875 -0.847656 -0.1875 -1.234375 C -0.1875 -1.429688 -0.144531 -1.640625 -0.0625 -1.859375 L 1.40625 -6.328125 C 1.570312 -6.847656 1.789062 -7.21875 2.0625 -7.4375 C 2.34375 -7.65625 2.707031 -7.765625 3.15625 -7.765625 C 3.613281 -7.765625 4.023438 -7.601562 4.390625 -7.28125 C 4.765625 -6.96875 5.25 -6.390625 5.84375 -5.546875 C 6.488281 -4.628906 7.082031 -3.988281 7.625 -3.625 C 8.175781 -3.269531 8.832031 -3.09375 9.59375 -3.09375 C 10.132812 -3.09375 10.550781 -3.175781 10.84375 -3.34375 C 11.132812 -3.507812 11.335938 -3.785156 11.453125 -4.171875 C 11.492188 -4.265625 11.515625 -4.414062 11.515625 -4.625 C 11.515625 -5.101562 11.285156 -5.539062 10.828125 -5.9375 C 10.367188 -6.34375 9.660156 -6.820312 8.703125 -7.375 C 7.679688 -8 6.847656 -8.554688 6.203125 -9.046875 C 5.566406 -9.535156 5.015625 -10.148438 4.546875 -10.890625 C 4.078125 -11.628906 3.84375 -12.5 3.84375 -13.5 C 3.84375 -14.195312 3.953125 -14.882812 4.171875 -15.5625 C 4.585938 -16.945312 5.445312 -18.054688 6.75 -18.890625 C 8.050781 -19.734375 9.539062 -20.15625 11.21875 -20.15625 Z M 11.21875 -20.15625 "/></g></g></g><g fill="#000000" fill-opacity="1"><g transform="translate(165.806678, 38.276499)"><g><path d="M 18.390625 -4.140625 C 18.347656 -4.054688 18.328125 -3.9375 18.328125 -3.78125 C 18.328125 -3.632812 18.363281 -3.519531 18.4375 -3.4375 C 18.507812 -3.363281 18.601562 -3.328125 18.71875 -3.328125 C 18.957031 -3.328125 19.160156 -3.429688 19.328125 -3.640625 C 19.503906 -3.847656 19.625 -3.953125 19.6875 -3.953125 C 19.78125 -3.953125 19.859375 -3.882812 19.921875 -3.75 C 19.984375 -3.625 20.015625 -3.472656 20.015625 -3.296875 C 20.035156 -2.722656 19.84375 -2.160156 19.4375 -1.609375 C 19.039062 -1.054688 18.457031 -0.601562 17.6875 -0.25 C 16.914062 0.09375 15.988281 0.265625 14.90625 0.265625 C 13.59375 0.265625 12.546875 -0.0351562 11.765625 -0.640625 C 10.984375 -1.253906 10.582031 -2.070312 10.5625 -3.09375 C 10.5625 -3.832031 10.738281 -4.660156 11.09375 -5.578125 L 12.75 -9.90625 C 12.851562 -10.164062 12.90625 -10.375 12.90625 -10.53125 C 12.90625 -10.789062 12.816406 -10.992188 12.640625 -11.140625 C 12.472656 -11.296875 12.269531 -11.375 12.03125 -11.375 C 11.644531 -11.375 11.257812 -11.195312 10.875 -10.84375 C 10.488281 -10.488281 10.175781 -9.925781 9.9375 -9.15625 L 9.9375 -9.203125 L 8.046875 -3.125 C 7.984375 -2.882812 7.953125 -2.671875 7.953125 -2.484375 C 7.953125 -2.222656 8 -2.019531 8.09375 -1.875 C 8.195312 -1.726562 8.335938 -1.582031 8.515625 -1.4375 C 8.660156 -1.300781 8.757812 -1.1875 8.8125 -1.09375 C 8.875 -1 8.882812 -0.882812 8.84375 -0.75 C 8.75 -0.488281 8.550781 -0.296875 8.25 -0.171875 C 7.945312 -0.0546875 7.488281 0 6.875 0 L 0.03125 0 C -0.488281 0 -0.867188 -0.0820312 -1.109375 -0.25 C -1.347656 -0.425781 -1.425781 -0.65625 -1.34375 -0.9375 C -1.269531 -1.175781 -1.0625 -1.382812 -0.71875 -1.5625 C -0.414062 -1.71875 -0.164062 -1.90625 0.03125 -2.125 C 0.226562 -2.34375 0.398438 -2.695312 0.546875 -3.1875 L 5.09375 -18.15625 C 5.15625 -18.332031 5.1875 -18.476562 5.1875 -18.59375 C 5.1875 -18.820312 5.128906 -19.003906 5.015625 -19.140625 C 4.910156 -19.273438 4.769531 -19.414062 4.59375 -19.5625 C 4.394531 -19.71875 4.25 -19.851562 4.15625 -19.96875 C 4.0625 -20.09375 4.046875 -20.253906 4.109375 -20.453125 C 4.234375 -20.921875 4.863281 -21.320312 6 -21.65625 C 7.132812 -22 8.320312 -22.171875 9.5625 -22.171875 C 10.726562 -22.171875 11.582031 -21.945312 12.125 -21.5 C 12.675781 -21.0625 12.953125 -20.460938 12.953125 -19.703125 C 12.953125 -19.265625 12.882812 -18.835938 12.75 -18.421875 L 11.125 -13.140625 C 11.90625 -14.160156 12.726562 -14.867188 13.59375 -15.265625 C 14.46875 -15.671875 15.414062 -15.875 16.4375 -15.875 C 17.65625 -15.875 18.640625 -15.503906 19.390625 -14.765625 C 20.140625 -14.023438 20.515625 -13.0625 20.515625 -11.875 C 20.515625 -11.257812 20.414062 -10.648438 20.21875 -10.046875 Z M 18.390625 -4.140625 "/></g></g></g><g fill="#000000" fill-opacity="1"><g transform="translate(187.10666, 38.276499)"><g><path d="M 10.703125 -15.875 C 13.003906 -15.875 14.84375 -15.445312 16.21875 -14.59375 C 17.601562 -13.738281 18.296875 -12.441406 18.296875 -10.703125 C 18.296875 -10.046875 18.175781 -9.296875 17.9375 -8.453125 L 16.703125 -4.3125 C 16.691406 -4.238281 16.6875 -4.140625 16.6875 -4.015625 C 16.6875 -3.703125 16.8125 -3.546875 17.0625 -3.546875 C 17.3125 -3.546875 17.519531 -3.648438 17.6875 -3.859375 C 17.851562 -4.066406 17.96875 -4.171875 18.03125 -4.171875 C 18.132812 -4.171875 18.21875 -4.097656 18.28125 -3.953125 C 18.351562 -3.816406 18.390625 -3.660156 18.390625 -3.484375 C 18.410156 -2.941406 18.203125 -2.390625 17.765625 -1.828125 C 17.335938 -1.265625 16.765625 -0.800781 16.046875 -0.4375 C 15.328125 -0.0820312 14.539062 0.09375 13.6875 0.09375 C 12.644531 0.09375 11.753906 -0.09375 11.015625 -0.46875 C 10.273438 -0.851562 9.765625 -1.414062 9.484375 -2.15625 C 8.878906 -1.4375 8.164062 -0.878906 7.34375 -0.484375 C 6.53125 -0.0976562 5.648438 0.09375 4.703125 0.09375 C 3.648438 0.09375 2.757812 -0.109375 2.03125 -0.515625 C 1.3125 -0.929688 0.773438 -1.460938 0.421875 -2.109375 C 0.078125 -2.765625 -0.09375 -3.453125 -0.09375 -4.171875 C -0.09375 -4.492188 -0.0625 -4.800781 0 -5.09375 C 0.320312 -6.476562 1.015625 -7.519531 2.078125 -8.21875 C 3.148438 -8.914062 4.425781 -9.265625 5.90625 -9.265625 C 7.570312 -9.265625 9.203125 -9.003906 10.796875 -8.484375 L 11.546875 -10.46875 C 11.804688 -11.3125 11.9375 -11.960938 11.9375 -12.421875 C 11.914062 -12.898438 11.753906 -13.257812 11.453125 -13.5 C 11.160156 -13.738281 10.703125 -13.859375 10.078125 -13.859375 C 10.203125 -13.535156 10.265625 -13.207031 10.265625 -12.875 C 10.265625 -12.132812 9.984375 -11.492188 9.421875 -10.953125 C 8.859375 -10.410156 8.054688 -10.140625 7.015625 -10.140625 C 6.035156 -10.140625 5.269531 -10.351562 4.71875 -10.78125 C 4.175781 -11.21875 3.90625 -11.753906 3.90625 -12.390625 C 3.90625 -13.390625 4.460938 -14.21875 5.578125 -14.875 C 6.703125 -15.539062 8.410156 -15.875 10.703125 -15.875 Z M 9.03125 -6.78125 C 8.46875 -6.78125 8.007812 -6.5625 7.65625 -6.125 C 7.3125 -5.695312 7.140625 -5.234375 7.140625 -4.734375 C 7.140625 -4.421875 7.210938 -4.160156 7.359375 -3.953125 C 7.515625 -3.753906 7.734375 -3.65625 8.015625 -3.65625 C 8.273438 -3.65625 8.554688 -3.757812 8.859375 -3.96875 C 9.171875 -4.1875 9.398438 -4.503906 9.546875 -4.921875 L 10.171875 -6.6875 C 9.828125 -6.75 9.445312 -6.78125 9.03125 -6.78125 Z M 9.03125 -6.78125 "/></g></g></g><g fill="#000000" fill-opacity="1"><g transform="translate(206.726637, 38.276499)"><g><path d="M 14.734375 -15.875 C 15.847656 -15.875 16.738281 -15.53125 17.40625 -14.84375 C 18.082031 -14.164062 18.421875 -13.328125 18.421875 -12.328125 C 18.421875 -11.953125 18.378906 -11.601562 18.296875 -11.28125 C 18.097656 -10.457031 17.71875 -9.828125 17.15625 -9.390625 C 16.59375 -8.953125 15.925781 -8.734375 15.15625 -8.734375 C 14.394531 -8.734375 13.816406 -8.910156 13.421875 -9.265625 C 13.035156 -9.628906 12.691406 -10.109375 12.390625 -10.703125 C 12.234375 -11.046875 12.082031 -11.296875 11.9375 -11.453125 C 11.800781 -11.617188 11.640625 -11.703125 11.453125 -11.703125 C 11.253906 -11.703125 11.078125 -11.617188 10.921875 -11.453125 C 10.773438 -11.296875 10.644531 -11.019531 10.53125 -10.625 L 8.21875 -3.125 C 8.175781 -3.019531 8.15625 -2.867188 8.15625 -2.671875 C 8.15625 -2.410156 8.226562 -2.191406 8.375 -2.015625 C 8.53125 -1.847656 8.738281 -1.6875 9 -1.53125 C 9.238281 -1.375 9.394531 -1.242188 9.46875 -1.140625 C 9.550781 -1.035156 9.582031 -0.90625 9.5625 -0.75 C 9.53125 -0.488281 9.390625 -0.296875 9.140625 -0.171875 C 8.890625 -0.0546875 8.460938 0 7.859375 0 L 0.1875 0 C -0.332031 0 -0.707031 -0.0820312 -0.9375 -0.25 C -1.175781 -0.425781 -1.265625 -0.65625 -1.203125 -0.9375 C -1.117188 -1.175781 -0.90625 -1.382812 -0.5625 -1.5625 C -0.269531 -1.71875 -0.0234375 -1.90625 0.171875 -2.125 C 0.378906 -2.34375 0.550781 -2.695312 0.6875 -3.1875 L 3.359375 -11.84375 C 3.398438 -11.945312 3.421875 -12.085938 3.421875 -12.265625 C 3.421875 -12.484375 3.375 -12.648438 3.28125 -12.765625 C 3.195312 -12.890625 3.050781 -13.046875 2.84375 -13.234375 C 2.644531 -13.390625 2.503906 -13.523438 2.421875 -13.640625 C 2.347656 -13.765625 2.34375 -13.925781 2.40625 -14.125 C 2.519531 -14.582031 3.144531 -14.988281 4.28125 -15.34375 C 5.425781 -15.695312 6.617188 -15.875 7.859375 -15.875 C 8.679688 -15.875 9.359375 -15.6875 9.890625 -15.3125 C 10.429688 -14.945312 10.785156 -14.421875 10.953125 -13.734375 C 11.910156 -15.160156 13.171875 -15.875 14.734375 -15.875 Z M 14.734375 -15.875 "/></g></g></g><g fill="#000000" fill-opacity="1"><g transform="translate(224.096615, 38.276499)"><g><path d="M 7.890625 -15.875 C 9.054688 -15.875 9.90625 -15.648438 10.4375 -15.203125 C 10.976562 -14.765625 11.25 -14.164062 11.25 -13.40625 C 11.25 -12.945312 11.179688 -12.507812 11.046875 -12.09375 L 8.28125 -3.125 C 8.21875 -2.882812 8.1875 -2.671875 8.1875 -2.484375 C 8.1875 -2.222656 8.238281 -2.019531 8.34375 -1.875 C 8.445312 -1.726562 8.585938 -1.582031 8.765625 -1.4375 C 8.898438 -1.300781 9 -1.1875 9.0625 -1.09375 C 9.125 -1 9.132812 -0.882812 9.09375 -0.75 C 8.988281 -0.488281 8.785156 -0.296875 8.484375 -0.171875 C 8.191406 -0.0546875 7.734375 0 7.109375 0 L 0.28125 0 C -0.238281 0 -0.617188 -0.0820312 -0.859375 -0.25 C -1.097656 -0.425781 -1.179688 -0.65625 -1.109375 -0.9375 C -1.023438 -1.175781 -0.8125 -1.382812 -0.46875 -1.5625 C -0.175781 -1.71875 0.0664062 -1.90625 0.265625 -2.125 C 0.472656 -2.34375 0.644531 -2.695312 0.78125 -3.1875 L 3.390625 -11.84375 C 3.453125 -12.03125 3.484375 -12.179688 3.484375 -12.296875 C 3.484375 -12.515625 3.429688 -12.6875 3.328125 -12.8125 C 3.234375 -12.945312 3.085938 -13.085938 2.890625 -13.234375 C 2.679688 -13.390625 2.535156 -13.523438 2.453125 -13.640625 C 2.378906 -13.765625 2.375 -13.925781 2.4375 -14.125 C 2.550781 -14.582031 3.175781 -14.988281 4.3125 -15.34375 C 5.457031 -15.695312 6.648438 -15.875 7.890625 -15.875 Z M 9.90625 -22.5 C 10.6875 -22.5 11.335938 -22.242188 11.859375 -21.734375 C 12.378906 -21.222656 12.640625 -20.597656 12.640625 -19.859375 C 12.640625 -19.335938 12.503906 -18.828125 12.234375 -18.328125 C 11.960938 -17.828125 11.582031 -17.421875 11.09375 -17.109375 C 10.601562 -16.804688 10.054688 -16.65625 9.453125 -16.65625 C 8.691406 -16.65625 8.054688 -16.910156 7.546875 -17.421875 C 7.035156 -17.929688 6.769531 -18.5625 6.75 -19.3125 C 6.75 -19.8125 6.878906 -20.304688 7.140625 -20.796875 C 7.398438 -21.296875 7.769531 -21.703125 8.25 -22.015625 C 8.726562 -22.335938 9.28125 -22.5 9.90625 -22.5 Z M 9.90625 -22.5 "/></g></g></g><g fill="#000000" fill-opacity="1"><g transform="translate(235.076602, 38.276499)"><g><path d="M 18.5625 -4.140625 C 18.53125 -4.054688 18.515625 -3.9375 18.515625 -3.78125 C 18.515625 -3.632812 18.546875 -3.519531 18.609375 -3.4375 C 18.679688 -3.363281 18.78125 -3.328125 18.90625 -3.328125 C 19.144531 -3.328125 19.347656 -3.429688 19.515625 -3.640625 C 19.679688 -3.847656 19.796875 -3.953125 19.859375 -3.953125 C 19.960938 -3.953125 20.039062 -3.882812 20.09375 -3.75 C 20.15625 -3.625 20.1875 -3.472656 20.1875 -3.296875 C 20.207031 -2.722656 20.015625 -2.160156 19.609375 -1.609375 C 19.210938 -1.054688 18.628906 -0.601562 17.859375 -0.25 C 17.085938 0.09375 16.164062 0.265625 15.09375 0.265625 C 13.769531 0.265625 12.71875 -0.0351562 11.9375 -0.640625 C 11.15625 -1.253906 10.753906 -2.070312 10.734375 -3.09375 C 10.734375 -3.832031 10.914062 -4.660156 11.28125 -5.578125 L 12.9375 -9.90625 C 13.03125 -10.164062 13.078125 -10.375 13.078125 -10.53125 C 13.078125 -10.789062 12.988281 -10.992188 12.8125 -11.140625 C 12.644531 -11.296875 12.441406 -11.375 12.203125 -11.375 C 11.765625 -11.375 11.34375 -11.164062 10.9375 -10.75 C 10.539062 -10.34375 10.253906 -9.835938 10.078125 -9.234375 L 8.21875 -3.125 C 8.132812 -2.90625 8.09375 -2.691406 8.09375 -2.484375 C 8.09375 -2.242188 8.144531 -2.050781 8.25 -1.90625 C 8.351562 -1.757812 8.492188 -1.601562 8.671875 -1.4375 C 8.804688 -1.320312 8.90625 -1.210938 8.96875 -1.109375 C 9.03125 -1.003906 9.039062 -0.882812 9 -0.75 C 8.914062 -0.488281 8.722656 -0.296875 8.421875 -0.171875 C 8.128906 -0.0546875 7.660156 0 7.015625 0 L 0.1875 0 C -0.332031 0 -0.707031 -0.0820312 -0.9375 -0.25 C -1.175781 -0.425781 -1.265625 -0.65625 -1.203125 -0.9375 C -1.117188 -1.175781 -0.90625 -1.382812 -0.5625 -1.5625 C -0.269531 -1.71875 -0.0234375 -1.90625 0.171875 -2.125 C 0.378906 -2.34375 0.550781 -2.695312 0.6875 -3.1875 L 3.359375 -11.84375 C 3.398438 -11.945312 3.421875 -12.085938 3.421875 -12.265625 C 3.421875 -12.484375 3.375 -12.648438 3.28125 -12.765625 C 3.195312 -12.890625 3.050781 -13.046875 2.84375 -13.234375 C 2.644531 -13.390625 2.503906 -13.523438 2.421875 -13.640625 C 2.347656 -13.765625 2.34375 -13.925781 2.40625 -14.125 C 2.519531 -14.582031 3.144531 -14.988281 4.28125 -15.34375 C 5.425781 -15.695312 6.617188 -15.875 7.859375 -15.875 C 8.859375 -15.875 9.644531 -15.597656 10.21875 -15.046875 C 10.800781 -14.492188 11.066406 -13.726562 11.015625 -12.75 C 11.828125 -13.925781 12.691406 -14.738281 13.609375 -15.1875 C 14.535156 -15.644531 15.539062 -15.875 16.625 -15.875 C 17.84375 -15.875 18.828125 -15.503906 19.578125 -14.765625 C 20.328125 -14.023438 20.703125 -13.0625 20.703125 -11.875 C 20.703125 -11.257812 20.601562 -10.648438 20.40625 -10.046875 Z M 18.5625 -4.140625 "/></g></g></g><g fill="#000000" fill-opacity="1"><g transform="translate(256.556576, 38.276499)"><g><path d="M 18.1875 -20.765625 C 18.820312 -20.765625 19.441406 -20.628906 20.046875 -20.359375 C 20.660156 -20.085938 21.160156 -19.71875 21.546875 -19.25 C 21.941406 -18.78125 22.140625 -18.273438 22.140625 -17.734375 C 22.140625 -16.546875 21.335938 -15.953125 19.734375 -15.953125 C 19.273438 -15.953125 18.921875 -15.988281 18.671875 -16.0625 C 18.421875 -16.132812 18.128906 -16.25 17.796875 -16.40625 C 17.734375 -16.269531 17.703125 -16.070312 17.703125 -15.8125 C 17.703125 -15.488281 17.753906 -15.109375 17.859375 -14.671875 C 17.972656 -14.234375 18.109375 -13.820312 18.265625 -13.4375 C 18.691406 -12.820312 18.90625 -12.082031 18.90625 -11.21875 C 18.90625 -10.84375 18.851562 -10.382812 18.75 -9.84375 C 18.507812 -8.800781 17.984375 -7.847656 17.171875 -6.984375 C 16.359375 -6.128906 15.316406 -5.457031 14.046875 -4.96875 C 12.785156 -4.476562 11.394531 -4.234375 9.875 -4.234375 C 8.707031 -4.234375 7.613281 -4.3125 6.59375 -4.46875 C 6.300781 -4.207031 6.15625 -3.890625 6.15625 -3.515625 C 6.15625 -3.253906 6.273438 -3.035156 6.515625 -2.859375 C 6.753906 -2.691406 7.148438 -2.609375 7.703125 -2.609375 L 12.203125 -2.609375 C 13.742188 -2.609375 14.941406 -2.34375 15.796875 -1.8125 C 16.660156 -1.28125 17.09375 -0.523438 17.09375 0.453125 C 17.09375 0.804688 17.035156 1.175781 16.921875 1.5625 C 16.679688 2.34375 16.132812 3.066406 15.28125 3.734375 C 14.4375 4.398438 13.242188 4.941406 11.703125 5.359375 C 10.160156 5.785156 8.289062 6 6.09375 6 C 4.132812 6 2.472656 5.828125 1.109375 5.484375 C -0.253906 5.148438 -1.269531 4.6875 -1.9375 4.09375 C -2.601562 3.5 -2.9375 2.84375 -2.9375 2.125 C -2.9375 1.96875 -2.894531 1.726562 -2.8125 1.40625 C -2.632812 0.832031 -2.226562 0.363281 -1.59375 0 C -0.96875 -0.375 0.0625 -0.625 1.5 -0.75 C 1.019531 -1.207031 0.78125 -1.757812 0.78125 -2.40625 C 0.78125 -2.625 0.8125 -2.851562 0.875 -3.09375 C 1.1875 -4.132812 2.125 -4.90625 3.6875 -5.40625 C 2.1875 -6.21875 1.4375 -7.414062 1.4375 -9 C 1.4375 -9.4375 1.5 -9.894531 1.625 -10.375 C 1.863281 -11.414062 2.390625 -12.359375 3.203125 -13.203125 C 4.023438 -14.054688 5.078125 -14.734375 6.359375 -15.234375 C 7.640625 -15.734375 9.039062 -15.984375 10.5625 -15.984375 C 12.9375 -15.984375 14.804688 -15.675781 16.171875 -15.0625 C 15.867188 -15.519531 15.628906 -16.015625 15.453125 -16.546875 C 15.285156 -17.078125 15.203125 -17.5625 15.203125 -18 C 15.203125 -18.757812 15.445312 -19.410156 15.9375 -19.953125 C 16.4375 -20.492188 17.1875 -20.765625 18.1875 -20.765625 Z M 11.671875 -10.109375 C 11.992188 -11.128906 12.15625 -11.910156 12.15625 -12.453125 C 12.15625 -13.128906 11.863281 -13.46875 11.28125 -13.46875 C 10.78125 -13.46875 10.34375 -13.222656 9.96875 -12.734375 C 9.601562 -12.242188 9.226562 -11.367188 8.84375 -10.109375 C 8.53125 -9.066406 8.375 -8.273438 8.375 -7.734375 C 8.375 -7.078125 8.648438 -6.75 9.203125 -6.75 C 9.703125 -6.75 10.140625 -7 10.515625 -7.5 C 10.898438 -8 11.285156 -8.867188 11.671875 -10.109375 Z M 5.703125 0.421875 C 5.140625 0.421875 4.628906 0.390625 4.171875 0.328125 C 3.929688 0.628906 3.8125 1.03125 3.8125 1.53125 C 3.832031 2.03125 4.035156 2.390625 4.421875 2.609375 C 4.816406 2.828125 5.421875 2.9375 6.234375 2.9375 C 7.234375 2.9375 8.046875 2.785156 8.671875 2.484375 C 9.304688 2.191406 9.625 1.765625 9.625 1.203125 C 9.625 0.960938 9.535156 0.769531 9.359375 0.625 C 9.179688 0.488281 8.921875 0.421875 8.578125 0.421875 Z M 5.703125 0.421875 "/></g></g></g></svg>